<svg xmlns="http://www.w3.org/2000/svg" viewBox="0 0 1200 630" role="img" aria-label="Vibe Coding Cover">
  <defs>
    <linearGradient id="g1" x1="0" y1="0" x2="1" y2="1">
      <stop offset="0%" stop-color="#667eea"/>
      <stop offset="100%" stop-color="#764ba2"/>
    </linearGradient>
    <linearGradient id="g2" x1="0" y1="1" x2="1" y2="0">
      <stop offset="0%" stop-color="#a78bfa" stop-opacity="0.4"/>
      <stop offset="100%" stop-color="#60a5fa" stop-opacity="0.4"/>
    </linearGradient>
  </defs>
  <rect width="1200" height="630" fill="url(#g1)"/>
  <g fill="none" stroke="url(#g2)" stroke-width="2">
    <circle cx="200" cy="160" r="90"/>
    <circle cx="1040" cy="140" r="70"/>
    <circle cx="980" cy="460" r="110"/>
    <circle cx="240" cy="480" r="130"/>
    <path d="M120 520 C 400 380, 800 780, 1080 240"/>
  </g>
  <g>
    <text x="600" y="300" text-anchor="middle" font-family="SF Pro Display, Inter, system-ui, -apple-system, Segoe UI, Roboto, Arial, sans-serif" font-size="72" font-weight="800" fill="white">Vibe Coding</text>
    <text x="600" y="360" text-anchor="middle" font-family="Inter, system-ui, -apple-system, Segoe UI, Roboto, Arial, sans-serif" font-size="28" fill="rgba(255,255,255,0.9)">When Your Intent Matters More Than Your Syntax</text>
  </g>
  <g transform="translate(0,30)" fill="rgba(255,255,255,0.15)">
    <rect x="160" y="380" width="120" height="120" rx="16"/>
    <rect x="320" y="380" width="120" height="120" rx="16"/>
    <rect x="480" y="380" width="120" height="120" rx="16"/>
    <rect x="640" y="380" width="120" height="120" rx="16"/>
    <rect x="800" y="380" width="120" height="120" rx="16"/>
  </g>
</svg>

